DBRep_DrawableShape

CASCADE Topology V1, (c) Matra-Datavision
Locations 0
Curve2ds 96
8 0 2.75
1 1.6498259351236366 27.699999999999999 0 1 
8 0 6.1251260905221132
1 7.7749520256457503 27.699999999999999 -1 0 
8 0 2.75
1 7.7749520256457432 27.699999999999999 0 1 
8 0 6.1251260905221132
1 1.6498259351236289 30.450000000000024 1 0 
8 0 3.1415926535897931
1 0 0 1 0 
8 0 3.1415926535897931
1 0 0 1 0 
8 0 3.1415926535897931
1 3.1415926535897931 0 1 0 
8 0 3.1415926535897931
1 0 0 1 0 
8 0 3.1415926535897931
1 3.1415926535897931 0 1 0 
8 0 3.1415926535897931
1 0 0 1 0 
8 0 3.1415926535897931
1 3.1415926535897931 0 1 0 
8 0 3.1415926535897931
1 0 0 1 0 
8 0 3.1415926535897931
1 3.1415926535897931 0 1 0 
8 0 3.1415926535897931
1 0 0 1 0 
8 0 3.1415926535897931
1 3.1415926535897931 0 1 0 
8 0 3.1415926535897931
1 0 0 1 0 
8 0 3.1415926535897931
1 3.1415926535897931 0 1 0 
8 0 2.75
1 0 0 0 1 
8 0 2.75
1 6.2831853071795862 0 0 1 
8 0 2.75
1 3.1415926535897931 0 0 1 
8 0 2.75
1 3.1415926535897931 0 0 1 
8 0 3.1415926535897931
1 0 2.75 1 0 
8 0 3.1415926535897931
1 3.1415926535897931 2.75 1 0 
8 0 3.1415926535897931
1 0 2.75 1 0 
8 0 3.1415926535897931
1 0 2.75 1 0 
8 0 3.1415926535897931
1 3.1415926535897931 2.75 1 0 
8 0 3.1415926535897931
1 0 2.75 1 0 
8 0 3.1415926535897931
1 3.1415926535897931 2.75 1 0 
8 0 3.1415926535897931
1 0 2.75 1 0 
8 0 3.1415926535897931
1 3.1415926535897931 2.75 1 0 
8 0 3.1415926535897931
1 0 2.75 1 0 
8 0 3.1415926535897931
1 3.1415926535897931 2.75 1 0 
8 0 3.1415926535897931
1 3.1415926535897931 27.699999999999999 1 0 
8 0 3.1415926535897931
1 3.1415926535897931 27.699999999999999 -1 0 
8 0 2.75
1 0 0 0 1 
8 0 2.75
1 6.2831853071795862 0 0 1 
8 0 2.75
1 3.1415926535897931 0 0 1 
8 0 2.75
1 3.1415926535897931 0 0 1 
8 0 2.75
1 0 0 0 1 
8 0 2.75
1 6.2831853071795862 0 0 1 
8 0 2.75
1 3.1415926535897931 0 0 1 
8 0 2.75
1 3.1415926535897931 0 0 1 
8 0 2.75
1 0 0 0 1 
8 0 2.75
1 6.2831853071795862 0 0 1 
8 0 2.75
1 3.1415926535897931 0 0 1 
8 0 2.75
1 3.1415926535897931 0 0 1 
8 0 2.75
1 0 0 0 1 
8 0 2.75
1 6.2831853071795862 0 0 1 
8 0 2.75
1 3.1415926535897931 0 0 1 
8 0 2.75
1 3.1415926535897931 0 0 1 
8 0 11.25
1 6.2831853071795862 27.699999999999999 0 -1 
8 0 11.25
1 0 27.699999999999999 0 -1 
8 0 11.25
1 3.1415926535897931 27.699999999999999 0 -1 
8 0 11.25
1 3.1415926535897931 27.699999999999999 0 -1 
8 0 3.1415926535897931
1 3.1415926535897931 16.449999999999999 1 0 
8 0 3.1415926535897931
1 0 16.449999999999999 1 0 
8 0 3.1415926535897931
1 0 0.75 1 0 
8 0 3.1415926535897931
1 6.2831853071795862 0.75 -1 0 
7 0 0  3 25 23  0 13.75  -2.0738966099997924e-012 13.553030303030306  -3.950617610826157e-012 13.15909090909091  -2.9958258096485224e-012 12.568181818181815  -3.0508928716699302e-012 11.977272727272728  -2.8332891588433995e-012 11.386363636363638  -2.6956215037898801e-012 10.795454545454545  -2.5295321393059567e-012 10.204545454545453  -2.3741009158584347e-012 9.6136363636363633  -2.2142288003124122e-012 9.0227272727272751  -2.0579093984451902e-012 8.4318181818181781  -1.8998136397385679e-012 7.8409090909090891  -1.7381651673531451e-012 7.2500000000000027  -1.581845765485923e-012 6.6590909090909065  -1.4237500067793007e-012 6.0681818181818175  -1.2647660696529783e-012 5.4772727272727275  -1.1075584893660562e-012 4.8863636363636358  -9.4946273065943387e-013 4.2954545454545476  -7.9047879353311146e-013 3.7045454545454541  -6.3238303482648917e-013 3.1136363636363629  -4.7428727611986687e-013 2.5227272727272725  -3.1619151741324458e-013 1.9318181818181814  -1.5898393712632242e-013 1.3409090909090904  -5.2402526762307389e-014 0.94696969696969646  0 0.75 
 4.3075891273332833e-022 4 0.59090909090909094 1 1.1818181818181819 1 1.7727272727272729 1 2.3636363636363638 1 2.9545454545454546 1 3.5454545454545459 1 4.1363636363636367 1 4.7272727272727275 1 5.3181818181818183 1 5.9090909090909092 1 6.5 1 7.0909090909090917 1 7.6818181818181825 1 8.2727272727272734 1 8.8636363636363633 1 9.454545454545455 1 10.045454545454547 1 10.636363636363637 1 11.227272727272728 1 11.818181818181818 1 12.40909090909091 1 13 4
7 0 0  3 25 23  6.2831853071795862 13.75  6.2831853071775123 13.553030303030306  6.2831853071756356 13.15909090909091  6.2831853071765904 12.568181818181815  6.2831853071765353 11.977272727272728  6.2831853071767529 11.386363636363638  6.2831853071768906 10.795454545454545  6.2831853071770567 10.204545454545453  6.2831853071772121 9.6136363636363633  6.283185307177372 9.0227272727272751  6.2831853071775283 8.4318181818181781  6.2831853071776864 7.8409090909090891  6.2831853071778481 7.2500000000000027  6.2831853071780044 6.6590909090909065  6.2831853071781625 6.0681818181818175  6.2831853071783215 5.4772727272727275  6.2831853071784787 4.8863636363636358  6.2831853071786368 4.2954545454545476  6.2831853071787958 3.7045454545454541  6.2831853071789538 3.1136363636363629  6.2831853071791119 2.5227272727272725  6.28318530717927 1.9318181818181814  6.2831853071794272 1.3409090909090904  6.2831853071795338 0.94696969696969646  6.2831853071795862 0.75 
 4.3075891273332833e-022 4 0.59090909090909094 1 1.1818181818181819 1 1.7727272727272729 1 2.3636363636363638 1 2.9545454545454546 1 3.5454545454545459 1 4.1363636363636367 1 4.7272727272727275 1 5.3181818181818183 1 5.9090909090909092 1 6.5 1 7.0909090909090917 1 7.6818181818181825 1 8.2727272727272734 1 8.8636363636363633 1 9.454545454545455 1 10.045454545454547 1 10.636363636363637 1 11.227272727272728 1 11.818181818181818 1 12.40909090909091 1 13 4
7 0 0  3 25 23  3.1415926535863128 13.75  3.1415926535863656 13.553030303030306  3.14159265358647 13.15909090909091  3.141592653586629 12.568181818181815  3.1415926535867875 11.977272727272728  3.1415926535869465 11.386363636363638  3.1415926535871024 10.795454545454545  3.1415926535872618 10.204545454545453  3.1415926535874208 9.6136363636363633  3.1415926535875784 9.0227272727272751  3.1415926535877365 8.4318181818181781  3.1415926535878942 7.8409090909090891  3.1415926535880536 7.2500000000000027  3.1415926535882117 6.6590909090909065  3.1415926535883689 6.0681818181818175  3.1415926535885279 5.4772727272727275  3.141592653588686 4.8863636363636358  3.1415926535888445 4.2954545454545476  3.1415926535890026 3.7045454545454541  3.1415926535891603 3.1136363636363629  3.1415926535893193 2.5227272727272725  3.1415926535894769 1.9318181818181814  3.1415926535896346 1.3409090909090904  3.1415926535897403 0.94696969696969646  3.1415926535897931 0.75 
 4.3073143270225554e-022 4 0.59090909090909094 1 1.1818181818181819 1 1.7727272727272729 1 2.3636363636363638 1 2.9545454545454546 1 3.5454545454545459 1 4.1363636363636367 1 4.7272727272727275 1 5.3181818181818183 1 5.9090909090909092 1 6.5 1 7.0909090909090917 1 7.6818181818181825 1 8.2727272727272734 1 8.8636363636363633 1 9.454545454545455 1 10.045454545454547 1 10.636363636363637 1 11.227272727272728 1 11.818181818181818 1 12.40909090909091 1 13 4
7 0 0  3 25 23  3.1415926535863128 13.75  3.1415926535863656 13.553030303030306  3.14159265358647 13.15909090909091  3.141592653586629 12.568181818181815  3.1415926535867875 11.977272727272728  3.1415926535869465 11.386363636363638  3.1415926535871024 10.795454545454545  3.1415926535872618 10.204545454545453  3.1415926535874208 9.6136363636363633  3.1415926535875784 9.0227272727272751  3.1415926535877365 8.4318181818181781  3.1415926535878942 7.8409090909090891  3.1415926535880536 7.2500000000000027  3.1415926535882117 6.6590909090909065  3.1415926535883689 6.0681818181818175  3.1415926535885279 5.4772727272727275  3.141592653588686 4.8863636363636358  3.1415926535888445 4.2954545454545476  3.1415926535890026 3.7045454545454541  3.1415926535891603 3.1136363636363629  3.1415926535893193 2.5227272727272725  3.1415926535894769 1.9318181818181814  3.1415926535896346 1.3409090909090904  3.1415926535897403 0.94696969696969646  3.1415926535897931 0.75 
 4.3073143270225554e-022 4 0.59090909090909094 1 1.1818181818181819 1 1.7727272727272729 1 2.3636363636363638 1 2.9545454545454546 1 3.5454545454545459 1 4.1363636363636367 1 4.7272727272727275 1 5.3181818181818183 1 5.9090909090909092 1 6.5 1 7.0909090909090917 1 7.6818181818181825 1 8.2727272727272734 1 8.8636363636363633 1 9.454545454545455 1 10.045454545454547 1 10.636363636363637 1 11.227272727272728 1 11.818181818181818 1 12.40909090909091 1 13 4
8 0 3.1415926535897931
1 0 13.75 1 0 
7 0 0  3 25 23  0.0079629804165189787 0  0.055562869107273448 2.7755575615628963e-017  0.15076264648878235 1.0322693331548651e-016  0.29356231256104554 9.667273105367434e-017  0.43636197863330917 1.5084835867950977e-015  0.57916164470557219 -1.3540274525821822e-016  0.72196131077783576 1.3645957459506033e-015  0.86476097685009878 -6.6004353511853831e-016  1.0075606429223625 2.2747791166861922e-015  1.1503603089946253 2.2066666044999358e-016  1.2931599750668894 1.1724240375519456e-015  1.435959641139152 4.1870770754297598e-016  1.5787593072114154 1.1495480209267136e-015  1.7215589732836791 1.1136129728522055e-015  1.8643586393559421 1.223871689109177e-015  2.0071583054282049 1.3183722332371195e-015  2.1499579715004691 4.9704443308082998e-016  2.2927576375727323 2.4119108315032927e-017  2.435557303644996 3.4032820223096025e-015  2.5783569697172593 -6.47637809439113e-016  2.7211566357895212 2.5179382893223132e-015  2.8639563018617857 2.5662933181015415e-015  3.0067559679340499 1.5387654559360414e-015  3.1019557453155575 4.7184478546569163e-016  3.1495556340063118 0 
 0 4 0.14279966607226333 1 0.28559933214452665 1 0.42839899821678995 1 0.5711986642890533 1 0.71399833036131666 1 0.8567979964335799 1 0.99959766250584325 1 1.1423973285781066 1 1.2851969946503699 1 1.4279966607226333 1 1.5707963267948966 1 1.7135959928671598 1 1.8563956589394233 1 1.9991953250116865 1 2.14199499108395 1 2.2847946571562132 1 2.4275943232284765 1 2.5703939893007397 1 2.7131936553730034 1 2.8559933214452666 1 2.9987929875175299 1 3.1415926535897931 4
7 0 0  3 25 23  0.0079629804165189787 1.570796411024898  0.0079629804165189805 1.546996465403309  0.0079629804165189787 1.4993965741601298  0.007962980416518977 1.4279967372953608  0.0079629804165189753 1.3565969004305924  0.0079629804165189787 1.2851970635658261  0.0079629804165189753 1.2137972267010573  0.007962980416518977 1.1423973898362902  0.0079629804165189753 1.0709975529715234  0.0079629804165189787 0.99959771610675352  0.0079629804165189753 0.92819787924198716  0.0079629804165189753 0.85679804237721713  0.0079629804165189787 0.78539820551244988  0.007962980416518977 0.71399836864768229  0.007962980416518977 0.64259853178291237  0.007962980416518977 0.57119869491814601  0.0079629804165189753 0.49979885805337732  0.0079629804165189805 0.42839902118860718  0.0079629804165189753 0.35699918432384103  0.007962980416518977 0.28559934745907284  0.007962980416518977 0.21419951059430445  0.0079629804165189753 0.14279967372953714  0.0079629804165189805 0.071399836864769278  0.0079629804165189805 0.023799945621589977  0.0079629804165189787 0 
 6.2831852229495855 4 6.3545850598143536 1 6.4259848966791218 1 6.4973847335438899 1 6.568784570408658 1 6.6401844072734253 1 6.7115842441381934 1 6.7829840810029616 1 6.8543839178677297 1 6.9257837547324979 1 6.997183591597266 1 7.0685834284620341 1 7.1399832653268023 1 7.2113831021915704 1 7.2827829390563386 1 7.3541827759211067 1 7.4255826127858739 1 7.496982449650643 1 7.5683822865154102 1 7.6397821233801784 1 7.7111819602449465 1 7.7825817971097146 1 7.8539816339744828 4
7 0 0  3 25 23  3.1495556340063118 1.570796411024898  3.1495556340063118 1.546996465403309  3.1495556340063118 1.4993965741601298  3.1495556340063118 1.4279967372953608  3.1495556340063113 1.3565969004305924  3.1495556340063127 1.2851970635658259  3.1495556340063104 1.2137972267010577  3.1495556340063118 1.1423973898362898  3.1495556340063118 1.0709975529715232  3.1495556340063118 0.99959771610675363  3.1495556340063113 0.92819787924198693  3.1495556340063113 0.85679804237721713  3.1495556340063113 0.78539820551244988  3.1495556340063113 0.71399836864768229  3.1495556340063118 0.64259853178291237  3.1495556340063118 0.57119869491814568  3.1495556340063118 0.49979885805337737  3.1495556340063122 0.42839902118860718  3.1495556340063113 0.35699918432384103  3.1495556340063118 0.28559934745907284  3.1495556340063109 0.21419951059430442  3.1495556340063118 0.14279967372953714  3.1495556340063127 0.071399836864769292  3.1495556340063127 0.023799945621589973  3.1495556340063122 0 
 6.2831852229495855 4 6.3545850598143536 1 6.4259848966791218 1 6.4973847335438899 1 6.568784570408658 1 6.6401844072734253 1 6.7115842441381934 1 6.7829840810029616 1 6.8543839178677297 1 6.9257837547324979 1 6.997183591597266 1 7.0685834284620341 1 7.1399832653268023 1 7.2113831021915704 1 7.2827829390563386 1 7.3541827759211067 1 7.4255826127858739 1 7.496982449650643 1 7.5683822865154102 1 7.6397821233801784 1 7.7111819602449465 1 7.7825817971097146 1 7.8539816339744828 4
7 0 0  3 25 23  3.1495556340063118 1.570796411024898  3.1495556340063118 1.546996465403309  3.1495556340063118 1.4993965741601298  3.1495556340063118 1.4279967372953608  3.1495556340063113 1.3565969004305924  3.1495556340063127 1.2851970635658259  3.1495556340063104 1.2137972267010577  3.1495556340063118 1.1423973898362898  3.1495556340063118 1.0709975529715232  3.1495556340063118 0.99959771610675363  3.1495556340063113 0.92819787924198693  3.1495556340063113 0.85679804237721713  3.1495556340063113 0.78539820551244988  3.1495556340063113 0.71399836864768229  3.1495556340063118 0.64259853178291237  3.1495556340063118 0.57119869491814568  3.1495556340063118 0.49979885805337737  3.1495556340063122 0.42839902118860718  3.1495556340063113 0.35699918432384103  3.1495556340063118 0.28559934745907284  3.1495556340063109 0.21419951059430442  3.1495556340063118 0.14279967372953714  3.1495556340063127 0.071399836864769292  3.1495556340063127 0.023799945621589973  3.1495556340063122 0 
 6.2831852229495855 4 6.3545850598143536 1 6.4259848966791218 1 6.4973847335438899 1 6.568784570408658 1 6.6401844072734253 1 6.7115842441381934 1 6.7829840810029616 1 6.8543839178677297 1 6.9257837547324979 1 6.997183591597266 1 7.0685834284620341 1 7.1399832653268023 1 7.2113831021915704 1 7.2827829390563386 1 7.3541827759211067 1 7.4255826127858739 1 7.496982449650643 1 7.5683822865154102 1 7.6397821233801784 1 7.7111819602449465 1 7.7825817971097146 1 7.8539816339744828 4
7 0 0  3 25 23  0.0079629804165189787 1.570796411024898  0.0079629804165189805 1.546996465403309  0.0079629804165189787 1.4993965741601298  0.007962980416518977 1.4279967372953608  0.0079629804165189753 1.3565969004305924  0.0079629804165189787 1.2851970635658261  0.0079629804165189753 1.2137972267010573  0.007962980416518977 1.1423973898362902  0.0079629804165189753 1.0709975529715234  0.0079629804165189787 0.99959771610675352  0.0079629804165189753 0.92819787924198716  0.0079629804165189753 0.85679804237721713  0.0079629804165189787 0.78539820551244988  0.007962980416518977 0.71399836864768229  0.007962980416518977 0.64259853178291237  0.007962980416518977 0.57119869491814601  0.0079629804165189753 0.49979885805337732  0.0079629804165189805 0.42839902118860718  0.0079629804165189753 0.35699918432384103  0.007962980416518977 0.28559934745907284  0.007962980416518977 0.21419951059430445  0.0079629804165189753 0.14279967372953714  0.0079629804165189805 0.071399836864769278  0.0079629804165189805 0.023799945621589977  0.0079629804165189787 0 
 6.2831852229495855 4 6.3545850598143536 1 6.4259848966791218 1 6.4973847335438899 1 6.568784570408658 1 6.6401844072734253 1 6.7115842441381934 1 6.7829840810029616 1 6.8543839178677297 1 6.9257837547324979 1 6.997183591597266 1 7.0685834284620341 1 7.1399832653268023 1 7.2113831021915704 1 7.2827829390563386 1 7.3541827759211067 1 7.4255826127858739 1 7.496982449650643 1 7.5683822865154102 1 7.6397821233801784 1 7.7111819602449465 1 7.7825817971097146 1 7.8539816339744828 4
7 0 0  3 25 23  0.0079629804165189787 1.570796411024898  0.055562869107273427 1.5707964110248962  0.15076264648878229 1.5707964110248958  0.29356231256104565 1.5707964110248998  0.43636197863330872 1.5707964110248929  0.57916164470557241 1.5707964110248995  0.72196131077783576 1.5707964110248973  0.86476097685009867 1.5707964110248962  1.0075606429223625 1.5707964110248969  1.1503603089946253 1.5707964110248982  1.2931599750668892 1.5707964110248971  1.435959641139152 1.5707964110248984  1.5787593072114154 1.5707964110248991  1.7215589732836787 1.5707964110248926  1.8643586393559421 1.5707964110249002  2.0071583054282049 1.5707964110248933  2.1499579715004691 1.5707964110248964  2.2927576375727323 1.5707964110248995  2.4355573036449956 1.5707964110248951  2.5783569697172593 1.5707964110248986  2.721156635789522 1.5707964110248953  2.8639563018617857 1.5707964110248998  3.0067559679340499 1.5707964110248978  3.1019557453155575 1.5707964110248978  3.1495556340063118 1.570796411024898 
 0 4 0.14279966607226333 1 0.28559933214452665 1 0.42839899821678995 1 0.5711986642890533 1 0.71399833036131666 1 0.8567979964335799 1 0.99959766250584325 1 1.1423973285781066 1 1.2851969946503699 1 1.4279966607226333 1 1.5707963267948966 1 1.7135959928671598 1 1.8563956589394233 1 1.9991953250116865 1 2.14199499108395 1 2.2847946571562132 1 2.4275943232284765 1 2.5703939893007397 1 2.7131936553730034 1 2.8559933214452666 1 2.9987929875175299 1 3.1415926535897931 4
7 0 0  3 25 23  0.0079629804165189787 1.570796411024898  0.055562869107273427 1.5707964110248962  0.15076264648878229 1.5707964110248958  0.29356231256104565 1.5707964110248998  0.43636197863330872 1.5707964110248929  0.57916164470557241 1.5707964110248995  0.72196131077783576 1.5707964110248973  0.86476097685009867 1.5707964110248962  1.0075606429223625 1.5707964110248969  1.1503603089946253 1.5707964110248982  1.2931599750668892 1.5707964110248971  1.435959641139152 1.5707964110248984  1.5787593072114154 1.5707964110248991  1.7215589732836787 1.5707964110248926  1.8643586393559421 1.5707964110249002  2.0071583054282049 1.5707964110248933  2.1499579715004691 1.5707964110248964  2.2927576375727323 1.5707964110248995  2.4355573036449956 1.5707964110248951  2.5783569697172593 1.5707964110248986  2.721156635789522 1.5707964110248953  2.8639563018617857 1.5707964110248998  3.0067559679340499 1.5707964110248978  3.1019557453155575 1.5707964110248978  3.1495556340063118 1.570796411024898 
 0 4 0.14279966607226333 1 0.28559933214452665 1 0.42839899821678995 1 0.5711986642890533 1 0.71399833036131666 1 0.8567979964335799 1 0.99959766250584325 1 1.1423973285781066 1 1.2851969946503699 1 1.4279966607226333 1 1.5707963267948966 1 1.7135959928671598 1 1.8563956589394233 1 1.9991953250116865 1 2.14199499108395 1 2.2847946571562132 1 2.4275943232284765 1 2.5703939893007397 1 2.7131936553730034 1 2.8559933214452666 1 2.9987929875175299 1 3.1415926535897931 4
8 0 3.1415926535897931
1 -1.5707963267948966 -29 1 0 
8 0 3.1415926535897931
1 1.5707963267948966 -29 1 0 
7 0 0  3 25 23  0.0079629804165189787 0  0.055562869107273448 2.7755575615628963e-017  0.15076264648878235 1.0322693331548651e-016  0.29356231256104554 9.667273105367434e-017  0.43636197863330917 1.5084835867950977e-015  0.57916164470557219 -1.3540274525821822e-016  0.72196131077783576 1.3645957459506033e-015  0.86476097685009878 -6.6004353511853831e-016  1.0075606429223625 2.2747791166861922e-015  1.1503603089946253 2.2066666044999358e-016  1.2931599750668894 1.1724240375519456e-015  1.435959641139152 4.1870770754297598e-016  1.5787593072114154 1.1495480209267136e-015  1.7215589732836791 1.1136129728522055e-015  1.8643586393559421 1.223871689109177e-015  2.0071583054282049 1.3183722332371195e-015  2.1499579715004691 4.9704443308082998e-016  2.2927576375727323 2.4119108315032927e-017  2.435557303644996 3.4032820223096025e-015  2.5783569697172593 -6.47637809439113e-016  2.7211566357895212 2.5179382893223132e-015  2.8639563018617857 2.5662933181015415e-015  3.0067559679340499 1.5387654559360414e-015  3.1019557453155575 4.7184478546569163e-016  3.1495556340063118 0 
 0 4 0.14279966607226333 1 0.28559933214452665 1 0.42839899821678995 1 0.5711986642890533 1 0.71399833036131666 1 0.8567979964335799 1 0.99959766250584325 1 1.1423973285781066 1 1.2851969946503699 1 1.4279966607226333 1 1.5707963267948966 1 1.7135959928671598 1 1.8563956589394233 1 1.9991953250116865 1 2.14199499108395 1 2.2847946571562132 1 2.4275943232284765 1 2.5703939893007397 1 2.7131936553730034 1 2.8559933214452666 1 2.9987929875175299 1 3.1415926535897931 4
8 0 3.1415926535897931
1 3.1415926535897931 13.75 1 0 
8 0 3
1 1.5707963267948966 -26 0 -1 
8 0 3
1 1.5707963267948966 -26 0 -1 
8 0 3.1415926535897931
1 0 0 1 0 
8 0 3.1415926535897931
1 3.1415926535897931 0 1 0 
8 0 3.1415926535897931
1 1.5707963267948966 -26 1 0 
8 0 3.1415926535897931
1 -1.5707963267948966 -26 1 0 
8 0 3.1415926535897931
1 0 -17 1 0 
8 0 17
1 3.1415926535897931 0 0 -1 
8 0 17
1 3.1415926535897931 0 0 -1 
8 0 17
1 0 0 0 -1 
8 0 17
1 6.2831853071795862 0 0 -1 
8 0 3.1415926535897931
1 0 9 1 0 
8 0 3.1415926535897931
1 3.1415926535897931 9 1 0 
8 0 3.1415926535897931
1 3.1415926535897931 -17 1 0 
8 0 9
1 3.1415926535897931 0 0 1 
8 0 9
1 3.1415926535897931 0 0 1 
8 0 9
1 0 0 0 1 
8 0 9
1 6.2831853071795862 0 0 1 
8 0 3
1 4.7123889803846897 -26 0 -1 
8 0 3
1 -1.5707963267948966 -26 0 -1 
8 0 2.75
1 3.1415926535897931 0 0 1 
8 0 2.75
1 0 0 0 1 
Curves 82
1 -2.75 3 -37.881393849749998 1 0 0 
2 -2.75 0 0 -1 0 0 -0 -0.078947368421048408 -0.99687878551977993 0 -0.99687878551977993 0.078947368421048408 38
1 -2.75 -3 -37.881393849749998 1 0 0 
2 2.4868995751599998e-014 0 0 1 0 0 0 0.078947368421048408 -0.99687878551977993 -0 0.99687878551977993 0.078947368421048408 38
1 0 3 -37.881393849749998 0 0 1 
2 0 0 -30 -1 0 0 0 -1 0 0 0 1 3
1 0 -3 -30 0 0 -1 
2 0 -25.980762113530002 15 -1 0 0 0 -1 0 0 0 1 3
2 0 -25.980762113530002 15 -1 0 0 0 1 0 0 0 -1 3
2 0 0 30 -1 0 0 0 -1 0 0 0 1 3
2 0 0 30 -1 0 0 0 1 0 0 0 -1 3
2 0 25.980762113530002 15 -1 0 0 0 -1 0 0 0 1 3
2 0 25.980762113530002 15 -1 0 0 0 1 0 0 0 -1 3
2 0 25.980762113530002 -15 -1 0 0 0 -1 0 0 0 1 3
2 0 25.980762113530002 -15 -1 0 0 0 1 0 0 0 -1 3
2 0 0 0 -1 0 0 0 -1 0 0 0 1 21
2 0 0 0 -1 0 0 0 1 0 0 0 -1 21
2 0 -25.980762113530002 -15 -1 0 0 0 -1 0 0 0 1 3
2 0 -25.980762113530002 -15 -1 0 0 0 1 0 0 0 -1 3
1 0 -28.980762113530002 -15 -1 0 0 
1 0 -22.980762113530002 -15 -1 0 0 
2 -2.75 -25.980762113530002 -15 -1 0 0 0 -1 0 0 0 1 3
2 -2.75 -25.980762113530002 -15 -1 0 0 0 1 0 0 0 -1 3
1 -2.75 3 -37.881393849749998 0 0 1 
1 -2.75 -3 -30 0 0 -1 
2 -2.75 0 -30 -1 0 0 0 -1 0 0 0 1 3
2 -2.75 -25.980762113530002 15 -1 0 0 0 -1 0 0 0 1 3
2 -2.75 -25.980762113530002 15 -1 0 0 0 1 0 0 0 -1 3
2 -2.75 0 30 -1 0 0 0 -1 0 0 0 1 3
2 -2.75 0 30 -1 0 0 0 1 0 0 0 -1 3
2 -2.75 25.980762113530002 15 -1 0 0 0 -1 0 0 0 1 3
2 -2.75 25.980762113530002 15 -1 0 0 0 1 0 0 0 -1 3
2 -2.75 25.980762113530002 -15 -1 0 0 0 -1 0 0 0 1 3
2 -2.75 25.980762113530002 -15 -1 0 0 0 1 0 0 0 -1 3
2 -2.75 0 0 1 0 0 -0 1 0 0 -0 1 23
2 -2.75 0 0 -1 0 0 0 1 0 0 0 -1 23
1 0 -28.980762113530002 15 -1 0 0 
1 0 -22.980762113530002 15 -1 0 0 
1 0 -3 30 -1 0 0 
1 0 3 30 -1 0 0 
1 0 22.980762113530002 15 -1 0 0 
1 0 28.980762113530002 15 -1 0 0 
1 0 22.980762113530002 -15 -1 0 0 
1 0 28.980762113530002 -15 -1 0 0 
1 -2.75 -23 0 -1 0 0 
1 -2.75 23 0 -1 0 0 
2 -14 0 0 1 0 0 -0 1 0 0 -0 1 23
2 -14 0 0 1 0 0 0 -1 0 0 0 -1 23
2 -14 0 0 -1 0 0 0 1 0 0 0 -1 21.5
2 -14 0 0 1 0 0 -0 1 0 0 -0 1 21.5
1 -27 21.5 7.4832251506510001e-011 1 0 -5.7563270389619992e-012 
1 -27 -21.5 -7.4829864527e-011 1 0 5.7561434251539999e-012 
2 -27 0 0 -1 0 0 0 1 0 0 0 -1 21.5
2 -27 19.5 0 0 0 -1 -1 0 0 0 1 0 2
2 -27 -19.5 0 0 0 1 -1 0 0 0 -1 0 2
2 -29 0 0 -1 0 0 0 1 0 0 0 -1 19.499999831539998
2 -29 0 0 -1 0 0 0 -1 0 0 0 1 19.499999831539998
1 -29 8 0 0 0 1 
2 -29 0 0 1 0 0 0 -1 0 0 0 -1 8
1 -29 -8 6 0 0 -1 
2 -29 0 6 1 0 0 -0 1 0 0 -0 1 8
2 -27 0 0 -1 0 0 0 -1 0 0 0 1 21.5
1 -26 8 0 0 0 1 
1 -26 8 0 -1 0 0 
1 -26 8 6 -1 0 0 
2 -26 0 0 -1 0 0 0 0 1 0 1 -0 19.5
2 -26 0 0 -1 0 0 0 0 -1 -0 -1 -0 19.5
2 -26 0 6 1 0 0 -0 1 0 0 -0 1 8
1 -26 -8 6 0 0 -1 
2 -26 0 0 1 0 0 0 -1 0 0 0 -1 8
2 -9 0 0 -1 0 0 0 0 1 0 1 -0 19.5
1 -26 0 -19.5 1 0 0 
1 -26 0 19.5 1 0 0 
2 -9 0 0 -1 0 0 0 -1 0 0 0 1 21
2 -9 0 0 -1 0 0 0 1 0 0 0 -1 21
2 -9 0 0 -1 0 0 0 0 -1 -0 -1 -0 19.5
1 0 21 0 -1 0 0 
1 0 -21 0 -1 0 0 
1 -26 -8 6 -1 0 0 
1 -26 -8 0 -1 0 0 
1 0 3 -30 -1 0 0 
1 0 -3 -30 -1 0 0 
Polygon3D 0
PolygonOnTriangulations 0
Surfaces 34
2 -30.449999999999999 0 0 1 0 0 0 -1 0 0 0 -1 38
1 0 0 0 1 0 0 0 -1 0 0 0 -1 
2 0 0 -30 -1 0 0 0 -1 0 0 0 1 3
2 0 -25.980762113530002 15 -1 0 0 0 -1 0 0 0 1 3
2 0 -25.980762113530002 15 -1 0 0 0 -1 0 0 0 1 3
2 0 0 30 -1 0 0 0 -1 0 0 0 1 3
2 0 0 30 -1 0 0 0 -1 0 0 0 1 3
2 0 25.980762113530002 15 -1 0 0 0 -1 0 0 0 1 3
2 0 25.980762113530002 15 -1 0 0 0 -1 0 0 0 1 3
2 0 25.980762113530002 -15 -1 0 0 0 -1 0 0 0 1 3
2 0 25.980762113530002 -15 -1 0 0 0 -1 0 0 0 1 3
2 0 0 0 -1 0 0 0 -1 0 0 0 1 21
2 0 0 0 -1 0 0 0 -1 0 0 0 1 21
2 0 -25.980762113530002 -15 -1 0 0 0 -1 0 0 0 1 3
2 0 -25.980762113530002 -15 -1 0 0 0 -1 0 0 0 1 3
1 -2.75 0 0 1 0 0 0 -1 0 0 0 -1 
2 -30.449999999999999 0 0 1 0 0 0 -1 0 0 0 -1 23
2 -30.449999999999999 0 0 1 0 0 0 -1 0 0 0 -1 23
1 -14 0 0 -1 0 0 0 1 0 0 0 -1 
2 -13.25 0 0 -1 0 0 0 1 0 0 0 -1 21.5
2 -13.25 0 0 -1 0 0 0 1 0 0 0 -1 21.5
5 -27 0 0 -1 0 0 0 0.99996829563897227 0.0079628962626057797 0 0.0079628962626057797 -0.99996829563897227 19.5 2
5 -27 0 0 -1 0 0 -0 -0.99996829563897227 -0.0079628962626057797 0 -0.0079628962626057797 0.99996829563897227 19.5 2
1 -29 0 0 1 0 0 0 -1 0 0 0 -1 
2 0 0 0 1 0 0 0 0 -1 -0 1 0 8
2 0 0 6 1 0 0 0 0 -1 -0 1 0 8
1 0 8 0 0 1 0 0 -0 1 1 0 -0 
1 -26 0 0 -1 0 0 0 0 1 0 1 -0 
2 -26 0 0 -1 0 0 0 0 1 0 1 -0 19.5
2 -26 0 0 -1 0 0 0 0 1 0 1 -0 19.5
1 -9 0 0 -1 0 0 0 -1 0 0 0 1 
1 0 -8 6 0 -1 0 0 0 -1 1 0 0 
1 0 3 -37.881393849749998 0 1 0 0 -0 1 1 0 -0 
1 0 -3 -30 0 -1 0 0 0 -1 1 0 0 
Triangulations 0

TShapes 222
Ve
1.0001000025e-007
-2.75 3 -37.88139384975
0 0

0101101
*
Ve
1.0001000025e-007
0 3 -37.88139384975
0 0

0101101
*
Ed
 1.00005e-007 1 1 0
1  1 0 0 2.75
2  1 1 0 0 2.75
0

0101000
+222 0 -221 0 *
Ve
1.0001000025e-007
-2.75 -3 -37.88139384975
0 0

0101101
*
Ed
 1.00005e-007 1 1 0
1  2 0 0 6.12512609052211
2  2 1 0 0 6.12512609052211
0

0101000
+219 0 -222 0 *
Ve
1.0001000025e-007
0 -3 -37.88139384975
0 0

0101101
*
Ed
 1.00005e-007 1 1 0
1  3 0 0 2.75
2  3 1 0 0 2.75
0

0101000
+219 0 -217 0 *
Ed
 1.00005e-007 1 1 0
1  4 0 0 6.12512609052211
2  4 1 0 0 6.12512609052211
0

0101000
+221 0 -217 0 *
Wi

0101100
-220 0 -218 0 +216 0 -215 0 *
Fa
0  1e-007 1 0

0111000
+214 0 *
Ve
1.0001000025e-007
0 3 -30
0 0

0101101
*
Ed
 1.0001000025e-007 1 1 0
1  5 0 0 7.88139384975
0

0101000
+221 0 -212 0 *
Ve
1.0001000025e-007
0 -3 -30
0 0

0101101
*
Ed
 1.00005e-007 1 1 0
1  6 0 0 3.14159265358979
2  5 3 0 0 3.14159265358979
0

0101000
+210 0 -212 0 *
Ed
 1.0001000025e-007 1 1 0
1  7 0 0 7.88139384975
0

0101000
+210 0 -217 0 *
Wi

0101000
+211 0 -209 0 +208 0 -215 0 *
Ve
1.00005e-007
0 -28.98076211353 15
0 0

0101101
*
Ve
1.00005e-007
0 -22.98076211353 15
0 0

0101101
*
Ed
 1.00005e-007 1 1 0
1  8 0 0 3.14159265358979
2  6 4 0 0 3.14159265358979
0

0101000
+206 0 -205 0 *
Ed
 1.00005e-007 1 1 0
1  9 0 0 3.14159265358979
2  7 5 0 0 3.14159265358979
0

0101000
+205 0 -206 0 *
Wi

0101000
-204 0 -203 0 *
Ve
1.00005e-007
0 -3 30
0 0

0101101
*
Ve
1.00005e-007
0 3 30
0 0

0101101
*
Ed
 1.00005e-007 1 1 0
1  10 0 0 3.14159265358979
2  8 6 0 0 3.14159265358979
0

0101000
+201 0 -200 0 *
Ed
 1.00005e-007 1 1 0
1  11 0 0 3.14159265358979
2  9 7 0 0 3.14159265358979
0

0101000
+200 0 -201 0 *
Wi

0101000
-199 0 -198 0 *
Ve
1.00005e-007
0 22.98076211353 15
0 0

0101101
*
Ve
1.00005e-007
0 28.98076211353 15
0 0

0101101
*
Ed
 1.00005e-007 1 1 0
1  12 0 0 3.14159265358979
2  10 8 0 0 3.14159265358979
0

0101000
+196 0 -195 0 *
Ed
 1.00005e-007 1 1 0
1  13 0 0 3.14159265358979
2  11 9 0 0 3.14159265358979
0

0101000
+195 0 -196 0 *
Wi

0101000
-194 0 -193 0 *
Ve
1.00005e-007
0 22.98076211353 -15
0 0

0101101
*
Ve
1.00005e-007
0 28.98076211353 -15
0 0

0101101
*
Ed
 1.00005e-007 1 1 0
1  14 0 0 3.14159265358979
2  12 10 0 0 3.14159265358979
0

0101000
+191 0 -190 0 *
Ed
 1.00005e-007 1 1 0
1  15 0 0 3.14159265358979
2  13 11 0 0 3.14159265358979
0

0101000
+190 0 -191 0 *
Wi

0101000
-189 0 -188 0 *
Ve
1.00005e-007
0 -21 0
0 0

0101101
*
Ve
1.00005e-007
0 21 0
0 0

0101101
*
Ed
 1.00005e-007 1 1 0
1  16 0 0 3.14159265358979
2  14 12 0 0 3.14159265358979
0

0101000
+186 0 -185 0 *
Ed
 1.00005e-007 1 1 0
1  17 0 0 3.14159265358979
2  15 13 0 0 3.14159265358979
0

0101000
+185 0 -186 0 *
Wi

0101000
-184 0 -183 0 *
Ve
1.00005e-007
0 -28.98076211353 -15
0 0

0101101
*
Ve
1.00005e-007
0 -22.98076211353 -15
0 0

0101101
*
Ed
 1.00005e-007 1 1 0
1  18 0 0 3.14159265358979
2  16 14 0 0 3.14159265358979
0

0101000
+181 0 -180 0 *
Ed
 1.00005e-007 1 1 0
1  19 0 0 3.14159265358979
2  17 15 0 0 3.14159265358979
0

0101000
+180 0 -181 0 *
Wi

0101000
-179 0 -178 0 *
Fa
0  1e-007 2 0

0111000
-207 0 -202 0 -197 0 -192 0 -187 0 -182 0 -177 0 *
Ve
1.00005e-007
-2.75 -28.98076211353 -15
0 0

0101101
*
Ed
 1e-007 1 1 0
1  20 0 0 2.75
2  18 14 0 0 2.75
2  19 15 0 0 2.75
4 G1 14 0 15 0
0

0101000
+181 0 -175 0 *
Ve
1.00005e-007
-2.75 -22.98076211353 -15
0 0

0101101
*
Ed
 1e-007 1 1 0
1  21 0 0 2.75
2  20 14 0 0 2.75
2  21 15 0 0 2.75
4 G1 14 0 15 0
0

0101000
+180 0 -173 0 *
Ed
 1.00005e-007 1 1 0
1  22 0 0 3.14159265358979
2  22 14 0 0 3.14159265358979
0

0101000
+175 0 -173 0 *
Wi

0101100
-174 0 +179 0 +172 0 -171 0 *
Fa
0  1e-007 14 0

0111000
+170 0 *
Ed
 1.00005e-007 1 1 0
1  23 0 0 3.14159265358979
2  23 15 0 0 3.14159265358979
0

0101000
+173 0 -175 0 *
Wi

0101100
+174 0 -168 0 -172 0 +178 0 *
Fa
0  1e-007 15 0

0111000
+167 0 *
Ve
1.0001000025e-007
-2.75 3 -30
0 0

0101101
*
Ed
 1.0001000025e-007 1 1 0
1  24 0 0 7.88139384975
0

0101000
+222 0 -165 0 *
Ve
1.0001000025e-007
-2.75 -3 -30
0 0

0101101
*
Ed
 1.0001000025e-007 1 1 0
1  25 0 0 7.88139384975
0

0101000
+163 0 -219 0 *
Ed
 1.00005e-007 1 1 0
1  26 0 0 3.14159265358979
2  24 3 0 0 3.14159265358979
0

0101000
+163 0 -165 0 *
Wi

0101000
-164 0 -218 0 -162 0 +161 0 *
Ve
1.00005e-007
-2.75 -28.98076211353 15
0 0

0101101
*
Ve
1.00005e-007
-2.75 -22.98076211353 15
0 0

0101101
*
Ed
 1.00005e-007 1 1 0
1  27 0 0 3.14159265358979
2  25 4 0 0 3.14159265358979
0

0101000
+159 0 -158 0 *
Ed
 1.00005e-007 1 1 0
1  28 0 0 3.14159265358979
2  26 5 0 0 3.14159265358979
0

0101000
+158 0 -159 0 *
Wi

0101000
+157 0 +156 0 *
Ve
1.00005e-007
-2.75 -3 30
0 0

0101101
*
Ve
1.00005e-007
-2.75 3 30
0 0

0101101
*
Ed
 1.00005e-007 1 1 0
1  29 0 0 3.14159265358979
2  27 6 0 0 3.14159265358979
0

0101000
+154 0 -153 0 *
Ed
 1.00005e-007 1 1 0
1  30 0 0 3.14159265358979
2  28 7 0 0 3.14159265358979
0

0101000
+153 0 -154 0 *
Wi

0101000
+152 0 +151 0 *
Ve
1.00005e-007
-2.75 22.98076211353 15
0 0

0101101
*
Ve
1.00005e-007
-2.75 28.98076211353 15
0 0

0101101
*
Ed
 1.00005e-007 1 1 0
1  31 0 0 3.14159265358979
2  29 8 0 0 3.14159265358979
0

0101000
+149 0 -148 0 *
Ed
 1.00005e-007 1 1 0
1  32 0 0 3.14159265358979
2  30 9 0 0 3.14159265358979
0

0101000
+148 0 -149 0 *
Wi

0101000
+147 0 +146 0 *
Ve
1.00005e-007
-2.75 22.98076211353 -15
0 0

0101101
*
Ve
1.00005e-007
-2.75 28.98076211353 -15
0 0

0101101
*
Ed
 1.00005e-007 1 1 0
1  33 0 0 3.14159265358979
2  31 10 0 0 3.14159265358979
0

0101000
+144 0 -143 0 *
Ed
 1.00005e-007 1 1 0
1  34 0 0 3.14159265358979
2  32 11 0 0 3.14159265358979
0

0101000
+143 0 -144 0 *
Wi

0101000
+142 0 +141 0 *
Ve
1.00005e-007
-2.75 23 0
0 0

0101101
*
Ve
1.00005e-007
-2.75 -23 0
0 0

0101101
*
Ed
 1.00005e-007 1 1 0
1  35 0 0 3.14159265358979
2  33 17 0 0 3.14159265358979
0

0101000
+139 0 -138 0 *
Ed
 1.00005e-007 1 1 0
1  36 0 0 3.14159265358979
2  34 18 0 0 3.14159265358979
0

0101000
+139 0 -138 0 *
Wi

0101000
-137 0 +136 0 *
Wi

0101000
+171 0 +168 0 *
Fa
0  1e-007 16 0

0111000
+160 0 +155 0 +150 0 +145 0 +140 0 +135 0 +134 0 *
Ed
 1e-007 1 1 0
1  37 0 0 2.75
2  35 4 0 0 2.75
2  36 5 0 0 2.75
4 G1 4 0 5 0
0

0101000
+206 0 -159 0 *
Ed
 1e-007 1 1 0
1  38 0 0 2.75
2  37 4 0 0 2.75
2  38 5 0 0 2.75
4 G1 4 0 5 0
0

0101000
+205 0 -158 0 *
Wi

0101100
-132 0 +204 0 +131 0 -157 0 *
Fa
0  1e-007 4 0

0111000
+130 0 *
Wi

0101100
+132 0 -156 0 -131 0 +203 0 *
Fa
0  1e-007 5 0

0111000
+128 0 *
Ed
 1e-007 1 1 0
1  39 0 0 2.75
2  39 6 0 0 2.75
2  40 7 0 0 2.75
4 G1 6 0 7 0
0

0101000
+201 0 -154 0 *
Ed
 1e-007 1 1 0
1  40 0 0 2.75
2  41 6 0 0 2.75
2  42 7 0 0 2.75
4 G1 6 0 7 0
0

0101000
+200 0 -153 0 *
Wi

0101100
-126 0 +199 0 +125 0 -152 0 *
Fa
0  1e-007 6 0

0111000
+124 0 *
Wi

0101100
+126 0 -151 0 -125 0 +198 0 *
Fa
0  1e-007 7 0

0111000
+122 0 *
Ed
 1e-007 1 1 0
1  41 0 0 2.75
2  43 8 0 0 2.75
2  44 9 0 0 2.75
4 G1 8 0 9 0
0

0101000
+196 0 -149 0 *
Ed
 1e-007 1 1 0
1  42 0 0 2.75
2  45 8 0 0 2.75
2  46 9 0 0 2.75
4 G1 8 0 9 0
0

0101000
+195 0 -148 0 *
Wi

0101100
-120 0 +194 0 +119 0 -147 0 *
Fa
0  1e-007 8 0

0111000
+118 0 *
Wi

0101100
+120 0 -146 0 -119 0 +193 0 *
Fa
0  1e-007 9 0

0111000
+116 0 *
Ed
 1e-007 1 1 0
1  43 0 0 2.75
2  47 10 0 0 2.75
2  48 11 0 0 2.75
4 G1 10 0 11 0
0

0101000
+191 0 -144 0 *
Ed
 1e-007 1 1 0
1  44 0 0 2.75
2  49 10 0 0 2.75
2  50 11 0 0 2.75
4 G1 10 0 11 0
0

0101000
+190 0 -143 0 *
Wi

0101100
-114 0 +189 0 +113 0 -142 0 *
Fa
0  1e-007 10 0

0111000
+112 0 *
Wi

0101100
+114 0 -141 0 -113 0 +188 0 *
Fa
0  1e-007 11 0

0111000
+110 0 *
Ve
1.00005e-007
-14 -23 0
0 0

0101101
*
Ed
 1e-007 1 1 0
1  45 0 0 11.25
2  51 17 0 0 11.25
2  52 18 0 0 11.25
4 G1 17 0 18 0
0

0101000
+138 0 -108 0 *
Ve
1.00005e-007
-14 23 0
0 0

0101101
*
Ed
 1e-007 1 1 0
1  46 0 0 11.25
2  53 17 0 0 11.25
2  54 18 0 0 11.25
4 G1 17 0 18 0
0

0101000
+139 0 -106 0 *
Ed
 1.00005e-007 1 1 0
1  47 0 0 3.14159265358979
2  55 17 0 0 3.14159265358979
0

0101000
+106 0 -108 0 *
Wi

0101100
-107 0 -137 0 +105 0 +104 0 *
Fa
0  1e-007 17 0

0111000
+103 0 *
Ed
 1.00005e-007 1 1 0
1  48 0 0 3.14159265358979
2  56 18 0 0 3.14159265358979
0

0101000
+108 0 -106 0 *
Wi

0101000
+104 0 +101 0 *
Ve
1.00005e-007
-14 21.5 0
0 0

0101101
*
Ve
1.00005e-007
-14 -21.5 0
0 0

0101101
*
Ed
 1.00005e-007 1 1 0
1  49 0 0 3.14159265358979
2  57 20 0 0 3.14159265358979
0

0101000
+99 0 -98 0 *
Ed
 1.00005e-007 1 1 0
1  50 0 0 3.14159265358979
2  58 21 0 0 3.14159265358979
0

0101000
+99 0 -98 0 *
Wi

0101000
+97 0 -96 0 *
Fa
0  1e-007 19 0

0111000
-100 0 -95 0 *
Ve
1e-007
-27 21.5 0
0 0

0101101
*
Ed
 1e-007 1 1 0
1  51 0 4.30758912733328e-022 13
2  59 20 0 4.30758912733328e-022 13
2  60 21 0 4.30758912733328e-022 13
4 G1 20 0 21 0
0

0101000
+93 0 -99 0 *
Ve
1e-007
-27 -21.5 0
0 0

0101101
*
Ed
 1e-007 1 1 0
1  52 0 4.30731432702256e-022 13
2  61 20 0 4.30731432702256e-022 13
2  62 21 0 4.30731432702256e-022 13
4 G1 20 0 21 0
0

0101000
+91 0 -98 0 *
Ed
 1e-007 1 1 0
1  53 0 0 3.14159265358979
2  63 20 0 0 3.14159265358979
2  64 22 0 0 3.14159265358979
4 G1 20 0 22 0
0

0101000
+93 0 -91 0 *
Wi

0101100
+92 0 +97 0 -90 0 -89 0 *
Fa
0  1e-007 20 0

0111000
+88 0 *
Ve
1.00005e-007
-29 19.49999983154 0
0 0

0101101
*
Ed
 1e-007 1 1 0
1  54 0 6.28318522294959 7.85398163397448
2  65 22 0 6.28318522294959 7.85398163397448
2  66 23 0 6.28318522294959 7.85398163397448
4 G1 22 0 23 0
0

0101000
+86 0 -93 0 *
Ve
1.00005e-007
-29 -19.49999983154 0
0 0

0101101
*
Ed
 1e-007 1 1 0
1  55 0 6.28318522294959 7.85398163397448
2  67 22 0 6.28318522294959 7.85398163397448
2  68 23 0 6.28318522294959 7.85398163397448
4 G1 22 0 23 0
0

0101000
+84 0 -91 0 *
Ed
 1.00005e-007 1 1 0
1  56 0 0 3.14159265358979
2  69 22 0 0 3.14159265358979
4 G1 22 0 24 0
0

0101000
+86 0 -84 0 *
Wi

0101100
+85 0 +89 0 -83 0 -82 0 *
Fa
0  1e-007 22 0

0111000
+81 0 *
Ed
 1.00005e-007 1 1 0
1  57 0 0 3.14159265358979
2  70 23 0 0 3.14159265358979
4 G1 24 0 23 0
0

0101000
+84 0 -86 0 *
Wi

0101000
-79 0 -82 0 *
Ve
1.0001000025e-007
-29 8 0
0 0

0101101
*
Ve
1.0001000025e-007
-29 8 6
0 0

0101101
*
Ed
 1.0001000025e-007 1 1 0
1  58 0 0 6
0

0101000
+77 0 -76 0 *
Ve
1.0001000025e-007
-29 -8 0
0 0

0101101
*
Ed
 1.00005e-007 1 1 0
1  59 0 0 3.14159265358979
2  71 25 0 0 3.14159265358979
0

0101000
+74 0 -77 0 *
Ve
1.0001000025e-007
-29 -8 6
0 0

0101101
*
Ed
 1.0001000025e-007 1 1 0
1  60 0 0 6
0

0101000
+72 0 -74 0 *
Ed
 1.00005e-007 1 1 0
1  61 0 0 3.14159265358979
2  72 26 0 0 3.14159265358979
0

0101000
+76 0 -72 0 *
Wi

0101000
-75 0 -73 0 -71 0 -70 0 *
Fa
0  1e-007 24 0

0111000
+78 0 +69 0 *
Ed
 1e-007 1 1 0
1  62 0 0 3.14159265358979
2  73 23 0 0 3.14159265358979
2  74 21 0 0 3.14159265358979
4 G1 23 0 21 0
0

0101000
+91 0 -93 0 *
Wi

0101100
+83 0 +67 0 -85 0 -79 0 *
Fa
0  1e-007 23 0

0111000
+66 0 *
Wi

0101100
+90 0 -96 0 -92 0 -67 0 *
Fa
0  1e-007 21 0

0111000
+64 0 *
Ve
1.0001000025e-007
-26 8 0
0 0

0101101
*
Ve
1.0001000025e-007
-26 8 6
0 0

0101101
*
Ed
 1.0001000025e-007 1 1 0
1  63 0 0 6
0

0101000
+62 0 -61 0 *
Ed
 1.00005e-007 1 1 0
1  64 0 0 3
2  75 25 0 0 3
4 G1 27 0 25 0
0

0101000
+62 0 -77 0 *
Ed
 1.00005e-007 1 1 0
1  65 0 0 3
2  76 26 0 0 3
4 G1 27 0 26 0
0

0101000
+61 0 -76 0 *
Wi

0101000
-60 0 +59 0 +75 0 -58 0 *
Fa
0  1e-007 27 0

0111000
+57 0 *
Ve
1.00005e-007
-26 0 19.5
0 0

0101101
*
Ve
1.00005e-007
-26 0 -19.5
0 0

0101101
*
Ed
 1.00005e-007 1 1 0
1  66 0 0 3.14159265358979
2  77 29 0 0 3.14159265358979
0

0101000
+55 0 -54 0 *
Ed
 1.00005e-007 1 1 0
1  67 0 0 3.14159265358979
2  78 30 0 0 3.14159265358979
0

0101000
+54 0 -55 0 *
Wi

0101000
+53 0 +52 0 *
Ve
1.0001000025e-007
-26 -8 6
0 0

0101101
*
Ed
 1.00005e-007 1 1 0
1  68 0 0 3.14159265358979
2  79 26 0 0 3.14159265358979
0

0101000
+61 0 -50 0 *
Ve
1.0001000025e-007
-26 -8 0
0 0

0101101
*
Ed
 1.0001000025e-007 1 1 0
1  69 0 0 6
0

0101000
+50 0 -48 0 *
Ed
 1.00005e-007 1 1 0
1  70 0 0 3.14159265358979
2  80 25 0 0 3.14159265358979
0

0101000
+48 0 -62 0 *
Wi

0101000
+60 0 +49 0 +47 0 +46 0 *
Fa
0  1e-007 28 0

0111000
+51 0 +45 0 *
Ve
1.00005e-007
-9 0 19.5
0 0

0101101
*
Ve
1.00005e-007
-9 0 -19.5
0 0

0101101
*
Ed
 1.00005e-007 1 1 0
1  71 0 0 3.14159265358979
2  81 29 0 0 3.14159265358979
0

0101000
+43 0 -42 0 *
Ed
 1e-007 1 1 0
1  72 0 0 17
2  82 29 0 0 17
2  83 30 0 0 17
4 G1 29 0 30 0
0

0101000
+54 0 -42 0 *
Ed
 1e-007 1 1 0
1  73 0 0 17
2  84 29 0 0 17
2  85 30 0 0 17
4 G1 29 0 30 0
0

0101000
+55 0 -43 0 *
Wi

0101100
+41 0 -40 0 -53 0 +39 0 *
Fa
0  1e-007 29 0

0111000
+38 0 *
Ve
1.00005e-007
-9 -21 0
0 0

0101101
*
Ve
1.00005e-007
-9 21 0
0 0

0101101
*
Ed
 1.00005e-007 1 1 0
1  74 0 0 3.14159265358979
2  86 12 0 0 3.14159265358979
0

0101000
+36 0 -35 0 *
Ed
 1.00005e-007 1 1 0
1  75 0 0 3.14159265358979
2  87 13 0 0 3.14159265358979
0

0101000
+35 0 -36 0 *
Wi

0101000
+34 0 +33 0 *
Ed
 1.00005e-007 1 1 0
1  76 0 0 3.14159265358979
2  88 30 0 0 3.14159265358979
0

0101000
+42 0 -43 0 *
Wi

0101000
-41 0 -31 0 *
Fa
0  1e-007 31 0

0111000
+32 0 +30 0 *
Ed
 1e-007 1 1 0
1  77 0 0 9
2  89 12 0 0 9
2  90 13 0 0 9
4 G1 12 0 13 0
0

0101000
+185 0 -35 0 *
Ed
 1e-007 1 1 0
1  78 0 0 9
2  91 12 0 0 9
2  92 13 0 0 9
4 G1 12 0 13 0
0

0101000
+186 0 -36 0 *
Wi

0101100
+184 0 +28 0 -34 0 -27 0 *
Fa
0  1e-007 12 0

0111000
+26 0 *
Wi

0101100
+183 0 +27 0 -33 0 -28 0 *
Fa
0  1e-007 13 0

0111000
+24 0 *
Wi

0101100
+31 0 -39 0 -52 0 +40 0 *
Fa
0  1e-007 30 0

0111000
+22 0 *
Ed
 1.00005e-007 1 1 0
1  79 0 0 3
2  93 26 0 0 3
4 G1 26 0 32 0
0

0101000
+50 0 -72 0 *
Wi

0101100
-49 0 +58 0 +70 0 -20 0 *
Fa
0  1e-007 26 0

0111000
+19 0 *
Ed
 1.00005e-007 1 1 0
1  80 0 0 3
2  94 25 0 0 3
4 G1 32 0 25 0
0

0101000
+48 0 -74 0 *
Wi

0101000
-47 0 +20 0 +71 0 -17 0 *
Fa
0  1e-007 32 0

0111000
+16 0 *
Wi

0101100
-46 0 +17 0 +73 0 -59 0 *
Fa
0  1e-007 25 0

0111000
+14 0 *
Wi

0101100
-105 0 +136 0 +107 0 +101 0 *
Fa
0  1e-007 18 0

0111000
+12 0 *
Ed
 1.00005e-007 1 1 0
1  81 0 0 2.75
2  95 3 0 0 2.75
4 G1 33 0 3 0
0

0101000
+212 0 -165 0 *
Wi

0101000
+164 0 -10 0 -211 0 -220 0 *
Fa
0  1e-007 33 0

0111000
+9 0 *
Ed
 1.00005e-007 1 1 0
1  82 0 0 2.75
2  96 3 0 0 2.75
4 G1 3 0 34 0
0

0101000
+210 0 -163 0 *
Wi

0101100
+10 0 -161 0 -7 0 +209 0 *
Fa
0  1e-007 3 0

0111000
+6 0 *
Wi

0101000
+162 0 +216 0 -208 0 +7 0 *
Fa
0  1e-007 34 0

0111000
+4 0 *
Sh

0101100
+213 0 +176 0 -169 0 -166 0 -133 0 -129 0 -127 0 -123 0 -121 0 -117 0 
-115 0 -111 0 -109 0 +102 0 +94 0 +87 0 +80 0 -68 0 +65 0 +63 0 
-56 0 -44 0 -37 0 -29 0 -25 0 -23 0 -21 0 -18 0 -15 0 -13 0 
+11 0 -8 0 -5 0 -3 0 *
So

0100000
+2 0 *

+1 0 